HIERARCHY
ROOT Pelvis
{
	OFFSET 0.000000 0.000000 0.000000
	CHANNELS 6 Xposition Yposition Zposition Xrotation Yrotation Zrotation
	JOINT LeftUpLeg_virtual
	{
		OFFSET 0.000000 0.000000 0.000000
		CHANNELS 3 Xrotation Yrotation Zrotation
		JOINT LeftUpLeg
		{
			OFFSET 18.735201 -5.666702 -4.541200
			CHANNELS 3 Xrotation Yrotation Zrotation
			JOINT LeftLeg
			{
				OFFSET -0.021200 -31.938179 0.493100
				CHANNELS 3 Xrotation Yrotation Zrotation
				JOINT LeftFoot
				{
					OFFSET 0.021200 -31.938179 -4.336299
					CHANNELS 3 Xrotation Yrotation Zrotation
					JOINT LeftToeBase
					{
						OFFSET 0.943001 -26.722000 15.023500
						CHANNELS 3 Xrotation Yrotation Zrotation
						End Site
						{
							OFFSET 0 0 0
						}
					}
				}
			}
		}
	}
	JOINT RightUpLeg_virtual
	{
		OFFSET 0.000000 0.000000 0.000000
		CHANNELS 3 Xrotation Yrotation Zrotation
		JOINT RightUpLeg
		{
			OFFSET -18.735201 -5.666702 -4.541200
			CHANNELS 3 Xrotation Yrotation Zrotation
			JOINT RightLeg
			{
				OFFSET 0.018946 -31.938133 0.493100
				CHANNELS 3 Xrotation Yrotation Zrotation
				JOINT RightFoot
				{
					OFFSET -0.018946 -31.938126 -4.336299
					CHANNELS 3 Xrotation Yrotation Zrotation
					JOINT RightToeBase
					{
						OFFSET -0.943001 -26.722004 15.023500
						CHANNELS 3 Xrotation Yrotation Zrotation
						End Site
						{
							OFFSET 0 0 0
						}
					}
				}
			}
		}
	}
	JOINT Hips_virtual
	{
		OFFSET 0.000000 0.000000 0.000000
		CHANNELS 3 Xrotation Yrotation Zrotation
		JOINT Hips
		{
			OFFSET -0.000000 -0.000000 -0.000000
			CHANNELS 3 Xrotation Yrotation Zrotation
			JOINT Spine
			{
				OFFSET 0.000000 10.199997 -0.299500
				CHANNELS 3 Xrotation Yrotation Zrotation
				JOINT Spine1
				{
					OFFSET 0.000000 11.900002 -1.516600
					CHANNELS 3 Xrotation Yrotation Zrotation
					JOINT Spine2
					{
						OFFSET 0.000000 13.600006 -2.842500
						CHANNELS 3 Xrotation Yrotation Zrotation
						JOINT Neck_virtual
						{
							OFFSET 0.000000 0.000000 0.000000
							CHANNELS 3 Xrotation Yrotation Zrotation
							JOINT Neck
							{
								OFFSET 0.000000 9.624100 -2.890100
								CHANNELS 3 Xrotation Yrotation Zrotation
								JOINT Head
								{
									OFFSET 0.000000 14.068802 -1.351900
									CHANNELS 3 Xrotation Yrotation Zrotation
									End Site
									{
										OFFSET 0 0 0
									}
								}
							}
						}
						JOINT LeftShoulder_virtual
						{
							OFFSET 0.000000 0.000000 0.000000
							CHANNELS 3 Xrotation Yrotation Zrotation
							JOINT LeftShoulder
							{
								OFFSET 15.263000 10.923401 -0.547700
								CHANNELS 3 Xrotation Yrotation Zrotation
								JOINT LeftArm
								{
									OFFSET 25.438599 -2.830597 -13.032500
									CHANNELS 3 Xrotation Yrotation Zrotation
									JOINT LeftForeArm
									{
										OFFSET 29.960503 0.000000 0.000000
										CHANNELS 3 Xrotation Yrotation Zrotation
										JOINT LeftHand
										{
											OFFSET 27.849251 0.000000 0.000000
											CHANNELS 3 Xrotation Yrotation Zrotation
											End Site
											{
												OFFSET 0 0 0
											}
										}
									}
								}
							}
						}
						JOINT RightShoulder_virtual
						{
							OFFSET 0.000000 0.000000 0.000000
							CHANNELS 3 Xrotation Yrotation Zrotation
							JOINT RightShoulder
							{
								OFFSET -15.263000 10.923401 -0.547700
								CHANNELS 3 Xrotation Yrotation Zrotation
								JOINT RightArm
								{
									OFFSET -25.438599 -2.830597 -13.032500
									CHANNELS 3 Xrotation Yrotation Zrotation
									JOINT RightForeArm
									{
										OFFSET -29.960503 0.000000 0.000000
										CHANNELS 3 Xrotation Yrotation Zrotation
										JOINT RightHand
										{
											OFFSET -27.849251 0.000000 0.000000
											CHANNELS 3 Xrotation Yrotation Zrotation
											End Site
											{
												OFFSET 0 0 0
											}
										}
									}
								}
							}
						}
					}
				}
			}
		}
	}
}
MOTION
Frames: 5
Frame Time: 0.03333333
0.912001 56.914867 6.921192 0.000000 0.000000 0.000000 -20.159542 -15.082596 3.659498 -68.833390 -0.888453 23.293776 77.747948 -0.529177 -0.088559 19.571019 -1.986474 -5.724091 0.000000 0.000000 0.000000 -27.427287 11.669966 0.749120 -65.846316 4.258438 -15.941317 78.007222 -1.185380 -2.883037 18.833415 -0.365620 6.411309 0.000000 0.000000 0.000000 1.410472 -1.205886 0.262749 5.738790 6.241151 -2.379293 8.948012 0.567006 -0.956575 3.519747 0.434266 -0.822319 0.000000 0.000000 0.000000 1.206676 0.315378 -0.187864 -1.369144 -0.123254 0.141951 0.000000 0.000000 0.000000 1.670673 -0.238183 -0.684756 -0.319972 -9.872922 -6.278469 -4.697905 -21.816198 -56.019494 4.692635 -58.971327 -2.723606 0.000000 0.000000 0.000000 1.188308 -0.838209 0.517805 -0.688839 2.185941 7.866292 -0.415470 22.910792 50.825818 6.451987 65.390653 1.688477 0.000000 0.000000 0.000000 
0.152298 55.808514 6.294142 0.000000 0.000000 0.000000 -22.477838 -16.682040 2.500780 -70.865958 -1.309102 22.444065 78.676321 -0.564486 0.379657 20.922389 -2.333273 -5.099196 0.000000 0.000000 0.000000 -29.416139 12.075938 0.822752 -67.782866 4.657500 -15.808843 79.650633 -1.374186 -2.705286 20.875836 -0.514417 6.321338 0.000000 0.000000 0.000000 0.562728 -1.698791 -0.312851 8.794478 7.113975 -1.799300 10.027363 0.003512 -1.275945 4.166403 0.433884 -0.661363 0.000000 0.000000 0.000000 1.320898 0.276011 -0.398485 -1.312317 -0.086611 0.167383 0.000000 0.000000 0.000000 1.504613 -0.302255 -0.584925 0.530323 -9.509896 -5.752406 -5.078797 -21.557206 -57.731593 5.330387 -59.545623 -2.801788 0.000000 0.000000 0.000000 1.136772 -0.825713 0.366144 -0.192448 1.893702 8.095892 -1.272212 24.358463 49.191979 5.413800 68.284010 1.879283 0.000000 0.000000 0.000000 
0.373034 56.643074 5.397701 0.000000 0.000000 0.000000 -22.851364 -18.378332 1.379180 -71.101019 -1.306537 21.675254 78.962451 -0.094965 0.539504 22.349994 -1.933811 -4.407557 0.000000 0.000000 0.000000 -28.711171 11.197322 0.267090 -67.106547 4.531590 -16.216143 79.864200 -1.773537 -2.617345 22.261832 -0.943498 5.831141 0.000000 0.000000 0.000000 2.269031 -2.239171 0.438269 9.063355 5.682775 -2.421448 11.210436 0.026397 -1.684199 3.846065 0.454945 -0.380446 0.000000 0.000000 0.000000 1.855896 0.265978 -0.336452 -1.216788 -0.147277 0.153343 0.000000 0.000000 0.000000 1.648800 0.039993 -0.354181 0.725214 -10.419480 -5.543347 -6.133124 -20.717224 -58.730686 4.967111 -58.016638 -3.421913 0.000000 0.000000 0.000000 1.196358 -0.685175 0.233651 0.306063 1.461648 7.806227 -2.240803 26.206095 51.378927 3.893516 68.997943 3.359904 0.000000 0.000000 0.000000 
0.565012 56.296547 5.948654 0.000000 0.000000 0.000000 -22.325098 -19.539298 2.720659 -71.261044 -2.090080 23.072422 79.872314 0.632494 0.762760 23.036580 -1.258128 -3.407238 0.000000 0.000000 0.000000 -30.479695 9.684652 0.429765 -68.951531 4.277662 -16.014015 80.061032 -1.749568 -2.253260 22.464735 -1.087173 6.410200 0.000000 0.000000 0.000000 1.024988 -2.654618 -0.313571 8.870975 3.090151 -3.653440 11.005544 -0.674165 -1.261919 4.448799 0.544922 -0.737959 0.000000 0.000000 0.000000 1.748390 0.148276 -0.544586 -1.231961 -0.181604 0.028540 0.000000 0.000000 0.000000 2.448973 -0.198968 -0.148215 1.236891 -10.234822 -3.793130 -7.283493 -21.888846 -59.700990 4.390836 -60.323821 -3.932088 0.000000 0.000000 0.000000 1.418391 -0.685766 0.089284 0.326099 0.828745 8.319071 -3.017957 25.690184 50.990337 3.749516 70.487156 3.431601 0.000000 0.000000 0.000000 
0.067527 55.881073 4.188019 0.000000 0.000000 0.000000 -23.967137 -20.538194 0.859899 -72.623878 -1.847049 21.858841 80.799253 -0.124394 0.798201 23.644254 -2.161977 -4.094490 0.000000 0.000000 0.000000 -32.377866 10.007013 0.502118 -70.757946 4.602225 -15.910857 80.222997 -2.165081 -2.087706 22.983146 -1.620759 6.162716 0.000000 0.000000 0.000000 2.492077 -2.160081 -0.515590 6.967010 1.781195 -3.880989 11.738254 -0.019950 -1.900812 4.032752 0.696221 -0.613875 0.000000 0.000000 0.000000 2.493880 0.306635 -0.698277 -1.123076 -0.057785 -0.025629 0.000000 0.000000 0.000000 2.794063 -0.309407 -0.015387 1.527924 -10.462474 -3.495228 -10.167668 -23.139730 -60.704624 2.256544 -63.584594 -5.674506 0.000000 0.000000 0.000000 1.228502 -0.606357 0.036874 0.528842 1.311106 7.299495 -4.345229 24.483737 50.261511 1.692291 71.308357 4.847682 0.000000 0.000000 0.000000 
